<svg width="43" height="40" viewBox="0 0 43 40" fill="none" xmlns="http://www.w3.org/2000/svg">
<path d="M22.061 1.32945L27.4247 12.5322C27.6612 13.026 28.1308 13.3672 28.6736 13.4395L40.9855 15.0789C41.5033 15.1479 41.7106 15.7858 41.3322 16.146L32.3353 24.7091C31.9387 25.0865 31.7593 25.6386 31.8583 26.1771L34.1037 38.3931C34.1981 38.9069 33.6554 39.3011 33.196 39.0526L22.2718 33.1421C21.7903 32.8815 21.2097 32.8815 20.7282 33.1421L9.80399 39.0526C9.34455 39.3011 8.80189 38.9069 8.89633 38.3931L11.1417 26.1771C11.2407 25.6386 11.0613 25.0865 10.6647 24.7091L1.6678 16.146C1.28941 15.7858 1.49669 15.1479 2.01449 15.0789L14.3264 13.4395C14.8692 13.3672 15.3388 13.026 15.5753 12.5322L20.939 1.32945C21.1646 0.858301 21.8354 0.858302 22.061 1.32945Z" fill="#FFD66C"/>
<path d="M22.061 1.32945L27.4247 12.5322C27.6612 13.026 28.1308 13.3672 28.6736 13.4395L40.9855 15.0789C41.5033 15.1479 41.7106 15.7858 41.3322 16.146L32.3353 24.7091C31.9387 25.0865 31.7593 25.6386 31.8583 26.1771L34.1037 38.3931C34.1981 38.9069 33.6554 39.3011 33.196 39.0526L22.2718 33.1421C21.7903 32.8815 21.2097 32.8815 20.7282 33.1421L9.80399 39.0526C9.34455 39.3011 8.80189 38.9069 8.89633 38.3931L11.1417 26.1771C11.2407 25.6386 11.0613 25.0865 10.6647 24.7091L1.6678 16.146C1.28941 15.7858 1.49669 15.1479 2.01449 15.0789L14.3264 13.4395C14.8692 13.3672 15.3388 13.026 15.5753 12.5322L20.939 1.32945C21.1646 0.858301 21.8354 0.858302 22.061 1.32945Z" stroke="black"/>
<path d="M22.061 1.32945L27.4247 12.5322C27.6612 13.026 28.1308 13.3672 28.6736 13.4395L40.9855 15.0789C41.5033 15.1479 41.7106 15.7858 41.3322 16.146L32.3353 24.7091C31.9387 25.0865 31.7593 25.6386 31.8583 26.1771L34.1037 38.3931C34.1981 38.9069 33.6554 39.3011 33.196 39.0526L22.2718 33.1421C21.7903 32.8815 21.2097 32.8815 20.7282 33.1421L9.80399 39.0526C9.34455 39.3011 8.80189 38.9069 8.89633 38.3931L11.1417 26.1771C11.2407 25.6386 11.0613 25.0865 10.6647 24.7091L1.6678 16.146C1.28941 15.7858 1.49669 15.1479 2.01449 15.0789L14.3264 13.4395C14.8692 13.3672 15.3388 13.026 15.5753 12.5322L20.939 1.32945C21.1646 0.858301 21.8354 0.858302 22.061 1.32945Z" stroke="black" stroke-opacity="0.2"/>
</svg>
